<svg width="32" height="33" viewBox="0 0 32 33" fill="none" xmlns="http://www.w3.org/2000/svg">
<path d="M11.2145 5.06141C13.3102 7.15486 14.3841 9.98694 14.9305 12.3326C15.2026 13.5007 15.341 14.5357 15.4112 15.2776C15.4358 15.5371 15.452 15.7604 15.4627 15.9404C15.2898 15.9371 15.0753 15.93 14.8257 15.9156C14.1122 15.8746 13.115 15.7753 11.9847 15.5425C9.71463 15.0749 6.95593 14.0787 4.86016 11.9852C2.7644 9.8918 1.69056 7.05972 1.14416 4.71401C0.872075 3.54593 0.733682 2.51095 0.663428 1.76907C0.63885 1.50953 0.62265 1.28628 0.611977 1.10621C0.784871 1.10951 0.999369 1.1167 1.24897 1.13104C1.96246 1.17204 2.95959 1.27132 4.08998 1.50416C6.36001 1.97176 9.11871 2.96797 11.2145 5.06141Z" fill="#151515" stroke="white"/>
<path d="M20.7299 5.06141C18.6341 7.15486 17.5603 9.98694 17.0139 12.3326C16.7418 13.5007 16.6034 14.5357 16.5331 15.2776C16.5085 15.5371 16.4923 15.7604 16.4817 15.9404C16.6546 15.9371 16.8691 15.93 17.1187 15.9156C17.8322 15.8746 18.8293 15.7753 19.9597 15.5425C22.2297 15.0749 24.9884 14.0787 27.0842 11.9852C29.1799 9.8918 30.2538 7.05972 30.8002 4.71401C31.0723 3.54593 31.2107 2.51095 31.2809 1.76907C31.3055 1.50953 31.3217 1.28628 31.3324 1.10621C31.1595 1.10951 30.945 1.1167 30.6954 1.13104C29.9819 1.17204 28.9847 1.27132 27.8544 1.50416C25.5843 1.97176 22.8256 2.96797 20.7299 5.06141Z" fill="#151515" stroke="white"/>
<path d="M11.2145 27.8319C13.3102 25.7385 14.3841 22.9064 14.9305 20.5607C15.2026 19.3926 15.341 18.3576 15.4112 17.6157C15.4358 17.3562 15.452 17.1329 15.4627 16.9529C15.2898 16.9562 15.0753 16.9634 14.8257 16.9777C14.1122 17.0187 13.115 17.118 11.9847 17.3508C9.71463 17.8184 6.95593 18.8146 4.86016 20.9081C2.7644 23.0015 1.69056 25.8336 1.14416 28.1793C0.872075 29.3474 0.733682 30.3824 0.663428 31.1242C0.63885 31.3838 0.62265 31.607 0.611977 31.7871C0.784871 31.7838 0.999369 31.7766 1.24897 31.7623C1.96246 31.7213 2.95959 31.622 4.08998 31.3891C6.36001 30.9216 9.11871 29.9253 11.2145 27.8319Z" fill="#151515" stroke="white"/>
<path d="M20.7299 27.8319C18.6341 25.7385 17.5603 22.9064 17.0139 20.5607C16.7418 19.3926 16.6034 18.3576 16.5331 17.6157C16.5085 17.3562 16.4923 17.1329 16.4817 16.9529C16.6546 16.9562 16.8691 16.9634 17.1187 16.9777C17.8322 17.0187 18.8293 17.118 19.9597 17.3508C22.2297 17.8184 24.9884 18.8146 27.0842 20.9081C29.1799 23.0015 30.2538 25.8336 30.8002 28.1793C31.0723 29.3474 31.2107 30.3824 31.2809 31.1242C31.3055 31.3838 31.3217 31.607 31.3324 31.7871C31.1595 31.7838 30.945 31.7766 30.6954 31.7623C29.9819 31.7213 28.9847 31.622 27.8544 31.3891C25.5843 30.9216 22.8256 29.9253 20.7299 27.8319Z" fill="#151515" stroke="white"/>
</svg>
